<svg width="24" height="24" viewBox="0 0 24 24" fill="none" xmlns="http://www.w3.org/2000/svg">
  <path d="M14.2119 19.4503H9.7816C5.85609 19.4503 2.67383 16.2681 2.67383 12.3426V12.1072C2.67383 8.18226 5.85609 5 9.7816 5H14.2119C18.1374 5 21.3196 8.18226 21.3196 12.1078V12.3431C21.3196 16.2686 18.1374 19.4509 14.2119 19.4509V19.4503ZM19.2224 11.5865C19.2224 10.166 18.0708 9.0139 16.6498 9.0139H7.34313C5.92264 9.0139 4.77049 10.1655 4.77049 11.5865C4.77049 13.007 5.92211 14.1592 7.34313 14.1592H16.6503C18.0708 14.1592 19.223 13.0076 19.223 11.5865H19.2224Z" fill="#111024"/>
  <path d="M8.78779 12.61C9.35258 12.376 9.62078 11.7285 9.38684 11.1637C9.15289 10.599 8.5054 10.3307 7.94061 10.5647C7.37582 10.7986 7.10762 11.4461 7.34156 12.0109C7.5755 12.5757 8.223 12.8439 8.78779 12.61Z" fill="#111024"/>
  <path d="M16.4096 12.3686C16.8419 11.9364 16.8419 11.2355 16.4096 10.8032C15.9773 10.371 15.2765 10.371 14.8442 10.8032C14.4119 11.2355 14.4119 11.9364 14.8442 12.3686C15.2765 12.8009 15.9773 12.8009 16.4096 12.3686Z" fill="#111024"/>
  <path d="M2.80297 14.0657C3.24701 14.0657 3.60692 13.7058 3.60692 13.2618V11.1907C3.60692 10.7466 3.24701 10.3867 2.80297 10.3867C2.35894 10.3867 1.99902 10.7466 1.99902 11.1907V13.2618C1.99902 13.7058 2.35894 14.0657 2.80297 14.0657Z" fill="#111024"/>
  <path d="M21.9985 11.1907C21.9985 10.7467 21.6386 10.3867 21.1946 10.3867C20.7506 10.3867 20.3906 10.7467 20.3906 11.1907V13.2618C20.3906 13.7058 20.7506 14.0657 21.1946 14.0657C21.6386 14.0657 21.9985 13.7058 21.9985 13.2618V11.1907Z" fill="#111024"/>
</svg>
