<svg width="24" height="24" viewBox="0 0 24 24" fill="none" xmlns="http://www.w3.org/2000/svg">
<path d="M2 19C2 18.4477 2.44772 18 3 18H4V20H2V19Z" fill="#333847"/>
<rect x="6" y="18" width="2" height="2" fill="#333847"/>
<rect x="4" y="20" width="2" height="2" fill="#333847"/>
<rect x="8" y="20" width="2" height="2" fill="#333847"/>
<rect x="12" y="20" width="2" height="2" fill="#333847"/>
<rect x="16" y="20" width="2" height="2" fill="#333847"/>
<path d="M20 20H22V21C22 21.5523 21.5523 22 21 22H20V20Z" fill="#333847"/>
<rect x="10" y="18" width="2" height="2" fill="#333847"/>
<rect x="14" y="18" width="2" height="2" fill="#333847"/>
<rect x="18" y="18" width="2" height="2" fill="#333847"/>
<path d="M9.16357 12.7C9.16357 14.0807 8.04429 15.2 6.66357 15.2C5.28286 15.2 4.16357 14.0807 4.16357 12.7C4.16357 11.3193 5.28286 10.2 6.66357 10.2C8.04429 10.2 9.16357 11.3193 9.16357 12.7Z" fill="#AEAEAE"/>
<path d="M4.26355 12L6.57351 8L9.07351 12L4.26355 12Z" fill="#AEAEAE"/>
<path d="M8.2989 7.0183L14.7018 2.53497L20.2774 10.4979C20.4358 10.7241 20.3809 11.0359 20.1547 11.1942L14.571 15.104C14.3448 15.2624 14.033 15.2074 13.8746 14.9812L8.2989 7.0183Z" stroke="#AEAEAE"/>
<rect x="13.3806" y="6.76367" width="7.21345" height="0.801494" rx="0.400747" transform="rotate(-35 13.3806 6.76367)" fill="#AEAEAE"/>
<circle cx="13.2823" cy="7.32161" r="1.20224" transform="rotate(-35 13.2823 7.32161)" fill="#AEAEAE"/>
</svg>
