<svg width="24" height="24" viewBox="0 0 24 24" fill="none" xmlns="http://www.w3.org/2000/svg">
<path d="M16.8701 2L17.002 4.81416H16.668C16.6035 4.31858 16.5156 3.9646 16.4043 3.75221C16.2227 3.41003 15.9795 3.15929 15.6748 3C15.376 2.83481 14.9805 2.75221 14.4883 2.75221H12.8096V11.9204C12.8096 12.6578 12.8887 13.118 13.0469 13.3009C13.2695 13.5487 13.6123 13.6726 14.0752 13.6726H14.4883V14H9.43457V13.6726H9.85645C10.3604 13.6726 10.7178 13.5192 10.9287 13.2124C11.0576 13.0236 11.1221 12.5929 11.1221 11.9204V2.75221H9.68945C9.13281 2.75221 8.7373 2.79351 8.50293 2.87611C8.19824 2.9882 7.9375 3.20354 7.7207 3.52212C7.50391 3.84071 7.375 4.27139 7.33398 4.81416H7L7.14062 2H16.8701Z" fill="currentColor"/>
<path d="M2 19C2 18.4477 2.44772 18 3 18H4V20H2V19Z" fill="#333847"/>
<rect x="6" y="18" width="2" height="2" fill="#333847"/>
<rect x="4" y="20" width="2" height="2" fill="#333847"/>
<rect x="8" y="20" width="2" height="2" fill="#333847"/>
<rect x="12" y="20" width="2" height="2" fill="#333847"/>
<rect x="16" y="20" width="2" height="2" fill="#333847"/>
<path d="M20 20H22V21C22 21.5523 21.5523 22 21 22H20V20Z" fill="#333847"/>
<rect x="10" y="18" width="2" height="2" fill="#333847"/>
<rect x="14" y="18" width="2" height="2" fill="#333847"/>
<rect x="18" y="18" width="2" height="2" fill="#333847"/>
</svg>
