<svg width="40" height="40" viewBox="0 0 40 40" fill="none" xmlns="http://www.w3.org/2000/svg">
<path fill-rule="evenodd" clip-rule="evenodd" d="M6.66683 3.3335C4.82588 3.3335 3.3335 4.82588 3.3335 6.66683V13.3335C3.3335 15.1744 4.82588 16.6668 6.66683 16.6668H13.3335C15.1744 16.6668 16.6668 15.1744 16.6668 13.3335V6.66683C16.6668 4.82588 15.1744 3.3335 13.3335 3.3335H6.66683ZM30.0002 16.6668C33.6821 16.6668 36.6668 13.6821 36.6668 10.0002C36.6668 6.31826 33.6821 3.3335 30.0002 3.3335C26.3183 3.3335 23.3335 6.31826 23.3335 10.0002C23.3335 13.6821 26.3183 16.6668 30.0002 16.6668ZM16.6668 30.0002C16.6668 33.6821 13.6821 36.6668 10.0002 36.6668C6.31826 36.6668 3.3335 33.6821 3.3335 30.0002C3.3335 26.3183 6.31826 23.3335 10.0002 23.3335C13.6821 23.3335 16.6668 26.3183 16.6668 30.0002ZM26.6668 23.3335C24.8259 23.3335 23.3335 24.8259 23.3335 26.6668V33.3335C23.3335 35.1744 24.8259 36.6668 26.6668 36.6668H33.3335C35.1744 36.6668 36.6668 35.1744 36.6668 33.3335V26.6668C36.6668 24.8259 35.1744 23.3335 33.3335 23.3335H26.6668Z" fill="#B4C5E2"/>
</svg>
