<svg width="24" height="24" viewBox="0 0 24 24" fill="none" xmlns="http://www.w3.org/2000/svg">
<path d="M15.319 5.48007L15.2122 4.9916L15.319 5.48007ZM14.2636 5.04291L14.6845 4.77302L14.2636 5.04291ZM18.2932 4.85811L18.6467 4.50456L18.2932 4.85811ZM17.7548 4.39199L17.9788 3.94496L17.7548 4.39199ZM16.9501 4.35185L17.1285 4.81894L16.9501 4.35185ZM19.6482 7.04998L19.1811 6.87159L19.6482 7.04998ZM19.142 5.70691L18.7884 6.06046L19.142 5.70691ZM19.6081 6.24522L19.1611 6.46921L19.6081 6.24522ZM18.9572 9.73651L19.2271 9.3156L18.9572 9.73651ZM18.52 8.68109L19.0085 8.78789L18.52 8.68109ZM21.449 10.6896L20.9745 10.8473L21.449 10.6896ZM20.9083 10.0921L20.7041 10.5485L20.9083 10.0921ZM20.9082 13.9079L21.1124 14.3643L20.9082 13.9079ZM21.449 13.3104L20.9745 13.1527L21.449 13.3104ZM18.5202 15.319L19.0087 15.2121L18.5202 15.319ZM18.9575 14.2633L18.6877 13.8424L18.9575 14.2633ZM19.6079 17.7545L20.0549 17.9785L19.6079 17.7545ZM19.6481 16.9495L20.1151 16.7711L19.6481 16.9495ZM16.9499 19.6477L17.1283 19.1807L16.9499 19.6477ZM17.7548 19.6076L17.5308 19.1606L17.7548 19.6076ZM14.2635 18.9569L13.8426 18.687L14.2635 18.9569ZM15.319 18.5197L15.4259 18.0312L15.319 18.5197ZM13.3106 21.4489L13.4683 21.9234L13.3106 21.4489ZM13.9079 20.9084L14.3643 21.1125L13.9079 20.9084ZM10.0922 20.9083L9.63578 21.1124L10.0922 20.9083ZM10.6896 21.4489L10.8473 20.9745L10.6896 21.4489ZM8.6812 18.5199L8.78799 19.0084L8.6812 18.5199ZM9.73658 18.9571L10.1575 18.6872L9.73658 18.9571ZM5.70691 19.1419L5.35336 19.4955L5.70691 19.1419ZM6.24527 19.6081L6.02129 20.0551L6.24527 19.6081ZM7.04998 19.6482L7.22837 20.1153L7.04998 19.6482ZM4.35186 16.9501L3.88477 16.7717L4.35186 16.9501ZM4.85815 18.2932L5.2117 17.9396L4.85815 18.2932ZM4.392 17.7548L4.83903 17.5308L4.392 17.7548ZM5.043 14.2635L4.77311 14.6844L5.043 14.2635ZM5.48014 15.3188L4.99168 15.2121L5.48014 15.3188ZM2.55106 13.3104L2.07659 13.4682L2.55106 13.3104ZM3.09165 10.0921L2.88747 9.63573L3.09165 10.0921ZM2.55107 10.6895L3.02554 10.8472L2.55107 10.6895ZM5.48033 8.68118L5.9688 8.57444L5.48033 8.68118ZM5.04323 9.73641L5.31316 10.1573L5.04323 9.73641ZM4.85814 5.70635L5.21169 6.0599L4.85814 5.70635ZM4.39183 6.24491L3.94478 6.02099L4.39183 6.24491ZM4.35171 7.04941L4.81883 6.87108L4.35171 7.04941ZM5.70676 4.85773L5.35321 4.50417L5.70676 4.85773ZM6.2452 4.39152L6.46915 4.83856L6.2452 4.39152ZM9.73666 5.04254L9.31573 4.7727L9.73666 5.04254ZM8.68112 5.47976L8.57428 5.96822L8.68112 5.47976ZM13.3105 2.55105L13.4682 2.07658L13.3105 2.55105ZM13.9079 3.09171L13.4515 3.29585L13.9079 3.09171ZM10.6897 2.55103L10.532 2.07654L10.6897 2.55103ZM10.0922 3.09177L10.5486 3.29589L10.0922 3.09177ZM11.3998 3H12.6003V2H11.3998V3ZM5.21169 6.0599L6.06031 5.21128L5.35321 4.50417L4.50459 5.35279L5.21169 6.0599ZM3 12.6001V11.3999H2V12.6001H3ZM6.06047 18.7884L5.2117 17.9396L4.5046 18.6467L5.35336 19.4955L6.06047 18.7884ZM12.6002 21H11.3999V22H12.6002V21ZM18.7884 17.939L17.9395 18.788L18.6466 19.4951L19.4955 18.6461L18.7884 17.939ZM21 11.3998V12.6002H22V11.3998H21ZM17.9396 5.21166L18.7884 6.06046L19.4955 5.35336L18.6467 4.50456L17.9396 5.21166ZM16.0514 4.37512C15.7742 4.60191 15.5858 4.75578 15.4376 4.86125C15.2858 4.96933 15.227 4.98835 15.2122 4.9916L15.4257 5.96853C15.645 5.92059 15.8392 5.80289 16.0175 5.67591C16.1996 5.54632 16.4186 5.3668 16.6847 5.14907L16.0514 4.37512ZM13.5319 3.84313C13.5661 4.18526 13.594 4.46705 13.6311 4.6874C13.6674 4.90332 13.7215 5.12384 13.8426 5.31279L14.6845 4.77302C14.6762 4.7602 14.6482 4.70522 14.6172 4.52144C14.587 4.34209 14.5626 4.10001 14.5269 3.74363L13.5319 3.84313ZM15.2122 4.9916C15.0079 5.03627 14.7973 4.94907 14.6845 4.77302L13.8426 5.31279C14.1813 5.84093 14.8128 6.10253 15.4257 5.96853L15.2122 4.9916ZM18.6467 4.50456C18.4115 4.26939 18.2139 4.06273 17.9788 3.94496L17.5309 4.83901C17.5852 4.86624 17.6499 4.922 17.9396 5.21166L18.6467 4.50456ZM16.6847 5.14907C17.0017 4.88967 17.0717 4.84063 17.1285 4.81894L16.7717 3.88475C16.5261 3.97855 16.3088 4.16451 16.0514 4.37512L16.6847 5.14907ZM17.9788 3.94496C17.6027 3.7565 17.1647 3.73466 16.7717 3.88475L17.1285 4.81894C17.2595 4.76891 17.4055 4.77619 17.5309 4.83901L17.9788 3.94496ZM19.625 7.94863C19.8356 7.69123 20.0215 7.47396 20.1153 7.22837L19.1811 6.87159C19.1594 6.92838 19.1104 6.99834 18.851 7.31539L19.625 7.94863ZM18.7884 6.06046C19.0781 6.35012 19.1338 6.41486 19.1611 6.46921L20.0551 6.02124C19.9373 5.7862 19.7307 5.58852 19.4955 5.35336L18.7884 6.06046ZM20.1153 7.22837C20.2654 6.83536 20.2436 6.39737 20.0551 6.02124L19.1611 6.46921C19.2239 6.59459 19.2312 6.74058 19.1811 6.87159L20.1153 7.22837ZM20.2564 9.47313C19.9 9.43749 19.658 9.41301 19.4786 9.38283C19.2949 9.3519 19.2399 9.32382 19.2271 9.3156L18.6873 10.1574C18.8762 10.2786 19.0968 10.3326 19.3127 10.369C19.533 10.406 19.8148 10.434 20.1569 10.4682L20.2564 9.47313ZM18.851 7.31539C18.6333 7.58149 18.4538 7.80048 18.3242 7.98251C18.1972 8.16087 18.0795 8.35503 18.0315 8.57429L19.0085 8.78789C19.0117 8.77301 19.0307 8.71427 19.1388 8.56245C19.2443 8.4143 19.3982 8.22582 19.625 7.94863L18.851 7.31539ZM19.2271 9.3156C19.051 9.20272 18.9638 8.9922 19.0085 8.78789L18.0315 8.57429C17.8975 9.18721 18.1591 9.81878 18.6873 10.1574L19.2271 9.3156ZM22 11.3998C22 11.0672 22.0063 10.7813 21.9234 10.5318L20.9745 10.8473C20.9937 10.905 21 10.9901 21 11.3998H22ZM20.1569 10.4682C20.5645 10.5089 20.6486 10.5237 20.7041 10.5485L21.1124 9.63568C20.8724 9.52835 20.5873 9.50622 20.2564 9.47313L20.1569 10.4682ZM21.9234 10.5318C21.7907 10.1326 21.4965 9.80745 21.1124 9.63568L20.7041 10.5485C20.8322 10.6058 20.9302 10.7142 20.9745 10.8473L21.9234 10.5318ZM20.2564 14.5268C20.5873 14.4937 20.8724 14.4716 21.1124 14.3643L20.7041 13.4514C20.6486 13.4762 20.5645 13.491 20.1569 13.5318L20.2564 14.5268ZM21 12.6002C21 13.0098 20.9937 13.095 20.9745 13.1527L21.9235 13.4681C22.0063 13.2186 22 12.9328 22 12.6002H21ZM21.1124 14.3643C21.4965 14.1925 21.7908 13.8673 21.9235 13.4681L20.9745 13.1527C20.9303 13.2858 20.8322 13.3942 20.7041 13.4514L21.1124 14.3643ZM19.6249 16.0511C19.3982 15.774 19.2444 15.5856 19.139 15.4375C19.0309 15.2857 19.0119 15.227 19.0087 15.2121L18.0318 15.4259C18.0797 15.6451 18.1974 15.8392 18.3243 16.0175C18.4539 16.1994 18.6333 16.4183 18.851 16.6843L19.6249 16.0511ZM20.1569 13.5318C19.8149 13.566 19.5332 13.5939 19.3129 13.631C19.097 13.6673 18.8766 13.7213 18.6877 13.8424L19.2273 14.6843C19.2401 14.6761 19.2951 14.648 19.4788 14.6171C19.6581 14.5869 19.9001 14.5625 20.2564 14.5268L20.1569 13.5318ZM19.0087 15.2121C18.9639 15.0078 19.0512 14.7972 19.2273 14.6843L18.6877 13.8424C18.1593 14.181 17.8976 14.8128 18.0318 15.4259L19.0087 15.2121ZM19.4955 18.6461C19.7306 18.4111 19.9372 18.2135 20.0549 17.9785L19.1609 17.5304C19.1337 17.5848 19.0779 17.6495 18.7884 17.939L19.4955 18.6461ZM18.851 16.6843C19.1103 17.0013 19.1593 17.0712 19.181 17.128L20.1151 16.7711C20.0213 16.5256 19.8355 16.3084 19.6249 16.0511L18.851 16.6843ZM20.0549 17.9785C20.2435 17.6023 20.2653 17.1642 20.1151 16.7711L19.181 17.128C19.2311 17.259 19.2238 17.405 19.1609 17.5304L20.0549 17.9785ZM16.0514 19.6245C16.3087 19.8351 16.526 20.021 16.7715 20.1148L17.1283 19.1807C17.0716 19.159 17.0016 19.1099 16.6846 18.8506L16.0514 19.6245ZM17.9395 18.788C17.6498 19.0776 17.5851 19.1334 17.5308 19.1606L17.9788 20.0546C18.2138 19.9369 18.4114 19.7302 18.6466 19.4951L17.9395 18.788ZM16.7715 20.1148C17.1646 20.265 17.6026 20.2431 17.9788 20.0546L17.5308 19.1606C17.4054 19.2234 17.2594 19.2307 17.1283 19.1807L16.7715 20.1148ZM14.5269 20.2562C14.5626 19.8998 14.5871 19.6577 14.6172 19.4783C14.6482 19.2945 14.6763 19.2395 14.6845 19.2267L13.8426 18.687C13.7215 18.876 13.6674 19.0965 13.6311 19.3124C13.594 19.5327 13.5661 19.8145 13.5319 20.1567L14.5269 20.2562ZM16.6846 18.8506C16.4185 18.6329 16.1996 18.4534 16.0176 18.3238C15.8392 18.1969 15.6451 18.0792 15.4259 18.0312L15.2122 19.0081C15.2271 19.0114 15.2858 19.0304 15.4376 19.1385C15.5858 19.2439 15.7742 19.3978 16.0514 19.6245L16.6846 18.8506ZM14.6845 19.2267C14.7974 19.0506 15.0079 18.9634 15.2122 19.0081L15.4259 18.0312C14.8129 17.8972 14.1813 18.1588 13.8426 18.687L14.6845 19.2267ZM12.6002 22C12.9328 22 13.2188 22.0064 13.4683 21.9234L13.1528 20.9745C13.0951 20.9936 13.0099 21 12.6002 21V22ZM13.5319 20.1567C13.4911 20.5645 13.4763 20.6487 13.4515 20.7042L14.3643 21.1125C14.4717 20.8725 14.4938 20.5873 14.5269 20.2562L13.5319 20.1567ZM13.4683 21.9234C13.8675 21.7907 14.1925 21.4965 14.3643 21.1125L13.4515 20.7042C13.3942 20.8322 13.2859 20.9302 13.1528 20.9745L13.4683 21.9234ZM9.47322 20.2564C9.50631 20.5873 9.52844 20.8725 9.63578 21.1124L10.5486 20.7041C10.5238 20.6486 10.509 20.5645 10.4683 20.1569L9.47322 20.2564ZM11.3999 21C10.9902 21 10.905 20.9937 10.8473 20.9745L10.5319 21.9234C10.7814 22.0063 11.0673 22 11.3999 22V21ZM9.63578 21.1124C9.80755 21.4965 10.1327 21.7907 10.5319 21.9234L10.8473 20.9745C10.7143 20.9302 10.6059 20.8322 10.5486 20.7041L9.63578 21.1124ZM7.94867 19.6249C8.22588 19.3981 8.41437 19.2442 8.56254 19.1388C8.71436 19.0307 8.77311 19.0117 8.78799 19.0084L8.57442 18.0315C8.35514 18.0794 8.16097 18.1971 7.98259 18.3241C7.80055 18.4537 7.58155 18.6332 7.31543 18.851L7.94867 19.6249ZM10.4683 20.1569C10.434 19.8147 10.4061 19.5329 10.369 19.3126C10.3327 19.0967 10.2786 18.8761 10.1575 18.6872L9.31567 19.227C9.3239 19.2398 9.35198 19.2948 9.38291 19.4786C9.4131 19.6579 9.43758 19.9 9.47322 20.2564L10.4683 20.1569ZM8.78799 19.0084C8.99228 18.9637 9.20279 19.0509 9.31567 19.227L10.1575 18.6872C9.81884 18.1591 9.18731 17.8975 8.57442 18.0315L8.78799 19.0084ZM5.35336 19.4955C5.58854 19.7307 5.78623 19.9373 6.02129 20.0551L6.46924 19.161C6.41488 19.1338 6.35015 19.078 6.06047 18.7884L5.35336 19.4955ZM7.31543 18.851C6.99836 19.1104 6.9284 19.1594 6.8716 19.1811L7.22837 20.1153C7.47398 20.0215 7.69125 19.8355 7.94867 19.6249L7.31543 18.851ZM6.02129 20.0551C6.3974 20.2435 6.83537 20.2654 7.22837 20.1153L6.8716 19.1811C6.7406 19.2311 6.59461 19.2239 6.46924 19.161L6.02129 20.0551ZM4.37515 16.0514C4.16454 16.3088 3.97856 16.5261 3.88477 16.7717L4.81896 17.1285C4.84065 17.0717 4.88969 17.0017 5.14911 16.6846L4.37515 16.0514ZM5.2117 17.9396C4.92202 17.6499 4.86626 17.5852 4.83903 17.5308L3.94497 17.9788C4.06274 18.2138 4.26941 18.4115 4.5046 18.6467L5.2117 17.9396ZM3.88477 16.7717C3.73468 17.1647 3.75653 17.6027 3.94497 17.9788L4.83903 17.5308C4.77621 17.4055 4.76893 17.2595 4.81896 17.1285L3.88477 16.7717ZM3.74365 14.5268C4.10005 14.5625 4.34215 14.587 4.52151 14.6171C4.7053 14.6481 4.76029 14.6762 4.77311 14.6844L5.3129 13.8426C5.12394 13.7214 4.9034 13.6674 4.68748 13.631C4.46711 13.5939 4.1853 13.566 3.84315 13.5318L3.74365 14.5268ZM5.14911 16.6846C5.36685 16.4185 5.54638 16.1995 5.67598 16.0175C5.80296 15.8391 5.92068 15.6449 5.96861 15.4256L4.99168 15.2121C4.98843 15.2269 4.96941 15.2857 4.86132 15.4375C4.75584 15.5857 4.60197 15.7742 4.37515 16.0514L5.14911 16.6846ZM4.77311 14.6844C4.94914 14.7973 5.03634 15.0078 4.99168 15.2121L5.96861 15.4256C6.10258 14.8127 5.841 14.1812 5.3129 13.8426L4.77311 14.6844ZM2 12.6001C2 12.9327 1.99365 13.2187 2.07659 13.4682L3.02553 13.1527C3.00635 13.095 3 13.0098 3 12.6001H2ZM3.84315 13.5318C3.4355 13.491 3.35135 13.4762 3.29584 13.4514L2.88753 14.3643C3.12753 14.4716 3.41269 14.4937 3.74365 14.5268L3.84315 13.5318ZM2.07659 13.4682C2.20929 13.8674 2.50352 14.1925 2.88753 14.3643L3.29584 13.4514C3.16784 13.3942 3.06976 13.2858 3.02553 13.1527L2.07659 13.4682ZM3.7437 9.47312C3.41269 9.50622 3.1275 9.52835 2.88747 9.63573L3.29582 10.5486C3.35133 10.5237 3.4355 10.5089 3.8432 10.4682L3.7437 9.47312ZM3 11.3999C3 10.9901 3.00635 10.9049 3.02554 10.8472L2.07661 10.5317C1.99365 10.7812 2 11.0672 2 11.3999H3ZM2.88747 9.63573C2.50351 9.8075 2.20932 10.1326 2.07661 10.5317L3.02554 10.8472C3.06977 10.7142 3.16784 10.6058 3.29582 10.5486L2.88747 9.63573ZM4.37517 7.94836C4.60204 8.22565 4.75596 8.4142 4.86146 8.5624C4.96958 8.71428 4.9886 8.77304 4.99185 8.78792L5.9688 8.57444C5.92087 8.35511 5.80314 8.16089 5.67613 7.98247C5.5465 7.80038 5.36692 7.58132 5.14912 7.31512L4.37517 7.94836ZM3.8432 10.4682C4.1854 10.4339 4.46726 10.406 4.68765 10.3689C4.90361 10.3326 5.12418 10.2785 5.31316 10.1573L4.77331 9.31553C4.76048 9.32376 4.70549 9.35186 4.52167 9.38279C4.34229 9.41299 4.10015 9.43747 3.7437 9.47312L3.8432 10.4682ZM4.99185 8.78792C5.03649 8.99219 4.94931 9.20266 4.77331 9.31553L5.31316 10.1573C5.84117 9.81866 6.10271 9.18724 5.9688 8.57444L4.99185 8.78792ZM4.50459 5.35279C4.26932 5.58806 4.06257 5.78583 3.94478 6.02099L4.83889 6.46883C4.86613 6.41445 4.92191 6.34969 5.21169 6.0599L4.50459 5.35279ZM5.14912 7.31512C4.88958 6.99791 4.84052 6.9279 4.81883 6.87108L3.88459 7.22774C3.9784 7.47345 4.16446 7.69082 4.37517 7.94836L5.14912 7.31512ZM3.94478 6.02099C3.75643 6.39701 3.7346 6.83484 3.88459 7.22774L4.81883 6.87108C4.76883 6.74012 4.77611 6.59418 4.83889 6.46883L3.94478 6.02099ZM7.94869 4.3748C7.69118 4.16411 7.47384 3.97808 7.22819 3.88428L6.87147 4.81849C6.92827 4.84018 6.99827 4.88925 7.31545 5.14875L7.94869 4.3748ZM6.06031 5.21128C6.35004 4.92156 6.41478 4.86579 6.46915 4.83856L6.02124 3.94448C5.78615 4.06225 5.58842 4.26896 5.35321 4.50417L6.06031 5.21128ZM7.22819 3.88428C6.83523 3.73423 6.39732 3.75607 6.02124 3.94448L6.46915 4.83856C6.59451 4.77575 6.74048 4.76847 6.87147 4.81849L7.22819 3.88428ZM9.47322 3.74353C9.43759 4.09983 9.41312 4.34186 9.38295 4.52116C9.35203 4.7049 9.32395 4.75988 9.31573 4.7727L10.1576 5.31239C10.2787 5.12347 10.3328 4.90299 10.3691 4.68712C10.4062 4.46681 10.4341 4.18508 10.4683 3.84303L9.47322 3.74353ZM7.31545 5.14875C7.58156 5.36648 7.80055 5.546 7.98256 5.67558C8.16091 5.80256 8.35505 5.92026 8.57428 5.96822L8.78796 4.99131C8.77309 4.98806 8.71436 4.96904 8.56253 4.86094C8.41437 4.75547 8.22588 4.60159 7.94869 4.3748L7.31545 5.14875ZM9.31573 4.7727C9.20285 4.94879 8.99229 5.036 8.78796 4.99131L8.57428 5.96822C9.18728 6.10229 9.81895 5.84065 10.1576 5.31239L9.31573 4.7727ZM12.6003 3C13.0099 3 13.0951 3.00635 13.1528 3.02553L13.4682 2.07658C13.2188 1.99365 12.9328 2 12.6003 2V3ZM14.5269 3.74363C14.4938 3.41268 14.4717 3.12755 14.3644 2.88756L13.4515 3.29585C13.4763 3.35135 13.4911 3.4355 13.5319 3.84313L14.5269 3.74363ZM13.1528 3.02553C13.2859 3.06976 13.3943 3.16784 13.4515 3.29585L14.3644 2.88756C14.1926 2.50353 13.8675 2.20928 13.4682 2.07658L13.1528 3.02553ZM11.3998 2C11.0673 2 10.7814 1.99365 10.532 2.07654L10.8474 3.02551C10.9051 3.00635 10.9902 3 11.3998 3V2ZM10.4683 3.84303C10.509 3.4355 10.5238 3.35137 10.5486 3.29589L9.63574 2.88766C9.52844 3.1276 9.50631 3.41267 9.47322 3.74353L10.4683 3.84303ZM10.532 2.07654C10.1327 2.20924 9.80751 2.50355 9.63574 2.88766L10.5486 3.29589C10.6059 3.16785 10.7143 3.06975 10.8474 3.02551L10.532 2.07654Z" fill="currentColor"/>
<circle cx="12" cy="12" r="3.5" transform="rotate(90 12 12)" stroke="currentColor"/>
</svg>
