<svg width="128" height="128" viewBox="0 0 128 128" fill="none" xmlns="http://www.w3.org/2000/svg">
<path d="M107.65 119.74C107.65 124.02 104.18 127.49 99.9 127.49H28.75C24.47 127.49 21 124.02 21 119.74C21 115.46 24.47 111.99 28.75 111.99H99.91C104.19 111.99 107.66 115.46 107.66 119.74H107.65Z" fill="#FF5757"/>
<path d="M107.65 8.75C107.65 13.03 104.18 16.5 99.9 16.5H28.75C24.47 16.5 21 13.03 21 8.75C21 4.47 24.47 1 28.75 1H99.91C104.19 1 107.66 4.47 107.66 8.75H107.65Z" fill="#FF5757"/>
<path d="M96.0102 115.81C95.8402 115.81 95.6602 115.8 95.4802 115.77C93.3902 115.48 91.9402 113.55 92.2302 111.47C92.2702 111.15 96.4702 78.42 75.0002 70.45C74.8802 70.4 74.7702 70.36 74.6502 70.3C73.5802 69.77 68.2002 66.92 67.7002 62.25C67.6702 61.98 67.6702 61.71 67.7002 61.44C68.2002 56.77 73.5702 53.91 74.6502 53.39C74.7602 53.34 74.8802 53.29 75.0002 53.24C96.5602 45.23 93.1202 17.29 93.0902 17.01C92.8102 14.92 94.2802 13 96.3702 12.73C98.4502 12.45 100.37 13.92 100.65 16.01C102.21 27.79 99.4402 52.16 77.8702 60.32C77.0702 60.74 76.2002 61.38 75.6902 61.89C76.2102 62.36 77.1402 63.02 77.8702 63.4C104.86 73.62 100.01 110.95 99.7902 112.54C99.5302 114.45 97.8902 115.83 96.0202 115.83L96.0102 115.81Z" fill="#FF5757"/>
<path d="M32.6001 115.81C30.7301 115.81 29.0901 114.43 28.8301 112.52C28.6101 110.93 23.7701 73.6101 50.7501 63.3801C51.5501 62.9601 52.4201 62.3301 52.9401 61.8201C52.4101 61.3501 51.4901 60.7001 50.7601 60.3101C29.1801 52.1501 26.4101 27.7801 27.9601 16.0001C28.2401 13.9101 30.1701 12.4501 32.2401 12.7201C34.3301 13.0001 35.7901 14.9101 35.5201 16.9901C35.3701 18.1401 32.1401 45.2601 53.6101 53.2301C53.7301 53.2801 53.8401 53.3301 53.9601 53.3801C55.0301 53.9001 60.4101 56.7601 60.9101 61.4301C60.9401 61.7001 60.9401 61.9701 60.9101 62.2401C60.4101 66.9201 55.0401 69.7701 53.9601 70.2901C53.8401 70.3401 53.7301 70.3901 53.6101 70.4401C32.0701 78.4401 36.3401 111.13 36.3801 111.46C36.6701 113.54 35.2101 115.47 33.1301 115.76C32.9501 115.79 32.7801 115.8 32.6001 115.8V115.81Z" fill="#FF5757"/>
<path d="M38.5196 119.44C31.4996 119.44 29.4596 115.06 33.9996 109.7L56.3996 83.2799C60.9396 77.9299 68.3696 77.9199 72.9196 83.2799L95.3096 109.7C99.8496 115.06 97.8196 119.44 90.7996 119.44H38.5196Z" fill="#FF5757"/>
</svg>
