<svg width="11" height="13" viewBox="0 0 11 13" fill="none" xmlns="http://www.w3.org/2000/svg">
<path d="M2.20302 4.64625V8.42362C2.20302 9.31396 2.20302 9.75912 2.47961 10.0357C2.7562 10.3123 3.20137 10.3123 4.0917 10.3123H6.48302C7.37335 10.3123 7.81852 10.3123 8.09511 10.0357C8.3717 9.75912 8.3717 9.31395 8.3717 8.42362V4.64625M2.20302 4.64625H8.3717M2.20302 4.64625H1.49595C1.42258 4.64625 1.38589 4.64625 1.36038 4.62724C1.35294 4.62169 1.34634 4.61509 1.34079 4.60765C1.32178 4.58214 1.32178 4.54545 1.32178 4.47208V4.47208C1.32178 3.74981 1.32178 3.38868 1.50897 3.13754C1.56357 3.0643 1.62851 2.99936 1.70175 2.94476C1.95289 2.75757 2.31402 2.75757 3.03629 2.75757H7.53843C8.2607 2.75757 8.62183 2.75757 8.87297 2.94476C8.94622 2.99936 9.01115 3.0643 9.06575 3.13754C9.25294 3.38868 9.25294 3.74981 9.25294 4.47208V4.47208C9.25294 4.54545 9.25294 4.58214 9.23393 4.60765C9.22838 4.61509 9.22179 4.62169 9.21434 4.62724C9.18883 4.64625 9.15215 4.64625 9.07877 4.64625H8.3717" stroke="currentColor" stroke-width="0.944342"/>
<path d="M6.16873 8.42363L6.16873 6.53495M4.40625 8.42363L4.40625 6.53495" stroke="currentColor" stroke-width="0.944342" stroke-linecap="round"/>
</svg>
