<svg width="24" height="20" fill="none" xmlns="http://www.w3.org/2000/svg"><g clip-path="url(#prefix__clip0_187_5226)"><path d="M1.953 5.813h-.009l-2.756-.115A.199.199 0 01-1 5.49a.193.193 0 01.206-.188l2.635.113 2.11-3.827a.202.202 0 01.174-.103l7.568.057c.036 0 .07.01.1.028l1.88 1.119a.197.197 0 01-.2.34l-1.835-1.092L4.24 1.88 2.126 5.713c-.033.06-.1.1-.173.1z" fill="#B6B2EA"/><path d="M3.658 6.416a.185.185 0 01-.122-.042.198.198 0 01-.036-.276L5.671 3.28a.19.19 0 01.167-.076l3.226.176c.11.006.191.1.185.206-.006.11-.112.194-.206.185l-3.123-.17-2.108 2.735a.187.187 0 01-.154.08zM.722 7.456a.196.196 0 01-.197-.194c0-.109.088-.197.197-.2l7.157-.058c.109 0 .197.088.197.195 0 .109-.088.197-.197.2l-7.157.057c.004 0 0 0 0 0zM5.004 10.764a.192.192 0 01-.16-.084l-1.82-2.584a.197.197 0 01.048-.276.197.197 0 01.276.049l1.762 2.498 10.343-.057a.197.197 0 110 .394l-10.45.06c.004 0 .004 0 0 0z" fill="#B6B2EA"/><path d="M10.228 10.734a.196.196 0 01-.164-.306l2.053-3.08a.21.21 0 01.188-.089l1.465.176a.197.197 0 01-.045.391l-1.344-.16-1.986 2.98a.206.206 0 01-.167.088zM13.688 12.566H3.83a.196.196 0 01-.163-.088L1.259 8.863l-1.662-.057a.197.197 0 01.006-.395h.006l1.762.061a.197.197 0 01.158.088l2.404 3.611h9.752c.11 0 .197.088.197.197a.192.192 0 01-.194.197z" fill="#B6B2EA"/><path d="M12.026 15.082h-1.761a.196.196 0 01-.164-.088l-1.644-2.522a.197.197 0 11.331-.216l1.586 2.432h1.655c.11 0 .197.088.197.197a.201.201 0 01-.2.197z" fill="#B6B2EA"/><path d="M13.925 2.61a.446.446 0 10.001.894.446.446 0 00-.002-.893z" fill="#4BBFE8"/><path d="M13.925 3.702a.644.644 0 11.001-1.287.644.644 0 01-.001 1.287zm0-.894a.25.25 0 000 .5.25.25 0 00.251-.251.254.254 0 00-.251-.25z" fill="#B6B2EA"/><path d="M9.516 3.047c-.249 0-.45.2-.45.446a.447.447 0 00.895 0c0-.245-.2-.446-.445-.446z" fill="#E84C3D"/><path d="M9.516 4.136a.646.646 0 01-.646-.643.643.643 0 11.646.643zm0-.892a.25.25 0 00-.252.25.25.25 0 00.5 0 .25.25 0 00-.248-.25z" fill="#B6B2EA"/><path d="M8.29 6.768a.45.45 0 00-.448.449.446.446 0 10.449-.449z" fill="#FACA44"/><path d="M8.29 7.86a.646.646 0 01-.645-.643.644.644 0 11.646.643zm0-.895a.25.25 0 10-.003.5.25.25 0 00.004-.5zM14.149 7.199a.447.447 0 10.001.893.447.447 0 00-.001-.893z" fill="#B6B2EA"/><path d="M14.149 8.284a.643.643 0 110-1.286.643.643 0 010 1.286zm0-.888a.25.25 0 00-.249.248.25.25 0 00.5 0 .254.254 0 00-.251-.248zM15.871 9.921a.446.446 0 10.001.89.446.446 0 000-.89z" fill="#B6B2EA"/><path d="M15.871 11.01a.643.643 0 11.001-1.286.643.643 0 010 1.286zm0-.891c-.14 0-.248.109-.248.248a.25.25 0 00.5 0 .25.25 0 00-.252-.248zM14.137 11.92a.448.448 0 10-.002.895.448.448 0 00.002-.895z" fill="#B6B2EA"/><path d="M14.137 13.008a.646.646 0 01-.646-.643c0-.354.288-.646.646-.646.355 0 .643.292.643.646a.647.647 0 01-.643.643zm0-.891a.25.25 0 10.249.252.252.252 0 00-.25-.252zM12.457 14.324a.447.447 0 10.001.893.447.447 0 00-.001-.893z" fill="#B6B2EA"/><path d="M12.457 15.41a.643.643 0 110-1.287.643.643 0 010 1.287zm0-.889a.25.25 0 00-.249.249.25.25 0 00.249.249.25.25 0 00.249-.25.25.25 0 00-.249-.248z" fill="#B6B2EA"/><g filter="url(#prefix__filter0_d_187_5226)"><path d="M16.814 19.467H9.355a.73.73 0 01-.728-.728v-1.916a.197.197 0 11.395 0v1.916c0 .185.148.334.333.334h7.46c.181 0 .33-.149.33-.334v-1.868c0-.109.088-.197.197-.197h2.086c.725 0 1.316-.591 1.316-1.316v-2.653c0-.106.085-.194.194-.197l1.222-.024a.456.456 0 00.382-.225.438.438 0 00.01-.44L21.22 9.307a4.085 4.085 0 01-.473-1.907 6.95 6.95 0 00-2.068-4.97A6.932 6.932 0 0013.69.397.197.197 0 0113.49.2a.192.192 0 01.191-.2 7.295 7.295 0 015.27 2.147 7.342 7.342 0 012.186 5.252c0 .6.149 1.197.428 1.722l1.331 2.514c.14.26.134.567-.018.821a.842.842 0 01-.716.419l-1.028.021v2.462c0 .943-.767 1.71-1.71 1.71h-1.889v1.671a.72.72 0 01-.722.728z" fill="#B6B2EA"/><path d="M16.814 19.467H9.355a.73.73 0 01-.728-.728v-1.916a.197.197 0 11.395 0v1.916c0 .185.148.334.333.334h7.46c.181 0 .33-.149.33-.334v-1.868c0-.109.088-.197.197-.197h2.086c.725 0 1.316-.591 1.316-1.316v-2.653c0-.106.085-.194.194-.197l1.222-.024a.456.456 0 00.382-.225.438.438 0 00.01-.44L21.22 9.307a4.085 4.085 0 01-.473-1.907 6.95 6.95 0 00-2.068-4.97A6.932 6.932 0 0013.69.397.197.197 0 0113.49.2a.192.192 0 01.191-.2 7.295 7.295 0 015.27 2.147 7.342 7.342 0 012.186 5.252c0 .6.149 1.197.428 1.722l1.331 2.514c.14.26.134.567-.018.821a.842.842 0 01-.716.419l-1.028.021v2.462c0 .943-.767 1.71-1.71 1.71h-1.889v1.671a.72.72 0 01-.722.728z" stroke="#B6B2EA" stroke-width=".4"/></g></g><defs><clipPath id="prefix__clip0_187_5226"><path fill="#fff" d="M0 0h24v19.467H0z"/></clipPath><filter id="prefix__filter0_d_187_5226" x="4.427" y="-.201" width="22.77" height="27.867" filterUnits="userSpaceOnUse" color-interpolation-filters="sRGB"><feFlood flood-opacity="0" result="BackgroundImageFix"/><feColorMatrix in="SourceAlpha" values="0 0 0 0 0 0 0 0 0 0 0 0 0 0 0 0 0 0 127 0" result="hardAlpha"/><feOffset dy="4"/><feGaussianBlur stdDeviation="2"/><feComposite in2="hardAlpha" operator="out"/><feColorMatrix values="0 0 0 0 0 0 0 0 0 0 0 0 0 0 0 0 0 0 0.25 0"/><feBlend in2="BackgroundImageFix" result="effect1_dropShadow_187_5226"/><feBlend in="SourceGraphic" in2="effect1_dropShadow_187_5226" result="shape"/></filter></defs></svg>