<svg width="13" height="14" viewBox="0 0 13 14" fill="none" xmlns="http://www.w3.org/2000/svg">
<path d="M3.51371 4.44403C3.51643 4.41768 3.51779 4.40451 3.51906 4.39309C3.6851 2.89714 4.94368 1.76173 6.44878 1.75009C6.46027 1.75 6.47351 1.75 6.5 1.75V1.75C6.52649 1.75 6.53973 1.75 6.55122 1.75009C8.05632 1.76173 9.31489 2.89714 9.48094 4.39309C9.48221 4.40451 9.48357 4.41768 9.48629 4.44403L9.64947 6.02568C9.68716 6.39097 9.70601 6.57361 9.74667 6.75109C9.78222 6.90625 9.83018 7.05829 9.89009 7.20577C9.95862 7.37445 10.048 7.53485 10.2267 7.85566L10.7598 8.81248C11.0338 9.30431 11.1708 9.55022 11.0632 9.73344C10.9555 9.91667 10.674 9.91667 10.111 9.91667H2.88899C2.32599 9.91667 2.04448 9.91667 1.93682 9.73344C1.82916 9.55022 1.96617 9.30431 2.24019 8.81248L2.77328 7.85566C2.95201 7.53485 3.04138 7.37445 3.10991 7.20577C3.16982 7.05829 3.21778 6.90625 3.25333 6.75109C3.29399 6.57361 3.31284 6.39097 3.35053 6.02568L3.51371 4.44403Z" stroke="#C1C6D8" stroke-width="0.731103"/>
<path d="M4.93037 10.3044C5.02295 10.8626 5.22697 11.3558 5.51076 11.7076C5.79456 12.0593 6.14228 12.25 6.5 12.25C6.85772 12.25 7.20544 12.0593 7.48924 11.7076C7.77303 11.3558 7.97704 10.8626 8.06963 10.3044" stroke="#C1C6D8" stroke-width="0.731103" stroke-linecap="round"/>
</svg>
