<svg width="20px" height="20px" viewBox="0 0 15 16" fill="none" xmlns="http://www.w3.org/2000/svg">
<path d="M1.875 6.69566C1.875 6.05567 2.39382 5.53685 3.03381 5.53685V5.53685C3.47274 5.53685 3.87399 5.28886 4.07029 4.89627L4.57895 3.87896C4.76187 3.51312 4.85333 3.3302 5.0052 3.21271C5.05175 3.17671 5.10195 3.14568 5.15497 3.12015C5.32797 3.03685 5.53248 3.03685 5.9415 3.03685H9.0585C9.46752 3.03685 9.67203 3.03685 9.84503 3.12015C9.89805 3.14568 9.94825 3.17671 9.9948 3.21271C10.1467 3.3302 10.2381 3.51312 10.4211 3.87896L10.9297 4.89627C11.126 5.28886 11.5273 5.53685 11.9662 5.53685V5.53685C12.6062 5.53685 13.125 6.05567 13.125 6.69566V10.5128C13.125 11.7027 13.125 12.2976 12.7554 12.6672C12.3857 13.0369 11.7908 13.0369 10.601 13.0369H4.39905C3.2092 13.0369 2.61428 13.0369 2.24464 12.6672C1.875 12.2976 1.875 11.7027 1.875 10.5128V6.69566Z" stroke="#858D9A" stroke-width="0.414102"/>
<path d="M9.79295 8.66194C9.79295 9.9283 8.76636 10.9549 7.5 10.9549C6.23364 10.9549 5.20705 9.9283 5.20705 8.66194C5.20705 7.39558 6.23364 6.36899 7.5 6.36899C8.76636 6.36899 9.79295 7.39558 9.79295 8.66194Z" stroke="#858D9A" stroke-width="0.414102"/>
</svg>
