<svg width="24" height="24" viewBox="0 0 24 24" fill="none" xmlns="http://www.w3.org/2000/svg">
<path fill-rule="evenodd" clip-rule="evenodd" d="M11.4 10.6C10.9582 10.6 10.6 10.9582 10.6 11.4V18.6C10.6 19.0418 10.9582 19.4 11.4 19.4H18.6C19.0418 19.4 19.4 19.0418 19.4 18.6V11.4C19.4 10.9582 19.0418 10.6 18.6 10.6H11.4ZM9 11.4C9 10.0745 10.0745 9 11.4 9H18.6C19.9255 9 21 10.0745 21 11.4V18.6C21 19.9255 19.9255 21 18.6 21H11.4C10.0745 21 9 19.9255 9 18.6V11.4Z" fill="currentColor"/>
<path fill-rule="evenodd" clip-rule="evenodd" d="M5.4 4.6C5.18783 4.6 4.98434 4.68429 4.83431 4.83431C4.68429 4.98434 4.6 5.18783 4.6 5.4V12.6C4.6 12.8122 4.68429 13.0157 4.83431 13.1657C4.98434 13.3157 5.18783 13.4 5.4 13.4H6.2C6.64183 13.4 7 13.7582 7 14.2C7 14.6418 6.64183 15 6.2 15H5.4C4.76348 15 4.15303 14.7471 3.70294 14.2971C3.25286 13.847 3 13.2365 3 12.6V5.4C3 4.76348 3.25286 4.15303 3.70294 3.70294C4.15303 3.25286 4.76348 3 5.4 3H12.6C13.2365 3 13.847 3.25286 14.2971 3.70294C14.7471 4.15303 15 4.76348 15 5.4V6.2C15 6.64183 14.6418 7 14.2 7C13.7582 7 13.4 6.64183 13.4 6.2V5.4C13.4 5.18783 13.3157 4.98434 13.1657 4.83431C13.0157 4.68429 12.8122 4.6 12.6 4.6H5.4Z" fill="currentColor"/>
</svg>
