<svg width="13" height="12" viewBox="0 0 13 12" fill="none" xmlns="http://www.w3.org/2000/svg">
<path d="M7.62213 6.20294C7.62213 6.9551 6.95875 7.61945 6.07071 7.61945C5.18267 7.61945 4.51929 6.9551 4.51929 6.20294C4.51929 5.45077 5.18267 4.78643 6.07071 4.78643C6.95875 4.78643 7.62213 5.45077 7.62213 6.20294Z" stroke="#858D9A" stroke-width="0.944342"/>
<path d="M10.1868 5.66988C10.3947 5.90355 10.4987 6.02039 10.4987 6.20291C10.4987 6.38544 10.3947 6.50228 10.1868 6.73595C9.45643 7.55664 7.88797 9.03594 6.0709 9.03594C4.25383 9.03594 2.68537 7.55664 1.95504 6.73595C1.74709 6.50228 1.64311 6.38544 1.64311 6.20291C1.64311 6.02039 1.74709 5.90355 1.95503 5.66988C2.68537 4.84919 4.25383 3.36989 6.0709 3.36989C7.88797 3.36989 9.45643 4.84919 10.1868 5.66988Z" stroke="#858D9A" stroke-width="0.944342"/>
</svg>
