<svg width="24" height="24" viewBox="0 0 24 24" fill="none" xmlns="http://www.w3.org/2000/svg">
<circle cx="4.5" cy="4.5" r="2" transform="rotate(90 4.5 4.5)" stroke="currentColor"/>
<path d="M7 4L6.5 4L6.5 5L7 5L7 4ZM22 5C22.2761 5 22.5 4.77614 22.5 4.5C22.5 4.22386 22.2761 4 22 4L22 5ZM7 5L22 5L22 4L7 4L7 5Z" fill="currentColor"/>
<rect x="2" y="9" width="20" height="1" rx="0.5" fill="currentColor"/>
<rect x="2" y="13" width="12" height="1" rx="0.5" fill="currentColor"/>
<rect x="2" y="17" width="12" height="1" rx="0.5" fill="currentColor"/>
<path d="M16.3536 14.6464C16.1583 14.4512 15.8417 14.4512 15.6464 14.6464C15.4512 14.8417 15.4512 15.1583 15.6464 15.3536L16.3536 14.6464ZM21 20.5C21.2761 20.5 21.5 20.2761 21.5 20V15.5C21.5 15.2239 21.2761 15 21 15C20.7239 15 20.5 15.2239 20.5 15.5V19.5H16.5C16.2239 19.5 16 19.7239 16 20C16 20.2761 16.2239 20.5 16.5 20.5H21ZM15.6464 15.3536L20.6464 20.3536L21.3536 19.6464L16.3536 14.6464L15.6464 15.3536Z" fill="currentColor"/>
</svg>
