<svg width="24" height="24" viewBox="0 0 24 24" fill="none" xmlns="http://www.w3.org/2000/svg">
<path fill-rule="evenodd" clip-rule="evenodd" d="M12 3C12.3945 3 12.7143 3.33579 12.7143 3.75V20.25C12.7143 20.6642 12.3945 21 12 21C11.6055 21 11.2857 20.6642 11.2857 20.25V3.75C11.2857 3.33579 11.6055 3 12 3Z" fill="white"/>
<path fill-rule="evenodd" clip-rule="evenodd" d="M7.94144 6.98851C8.54424 6.35558 9.3618 6 10.2143 6H15.5714C15.9659 6 16.2857 6.33579 16.2857 6.75C16.2857 7.16421 15.9659 7.5 15.5714 7.5H10.2143C9.74068 7.5 9.28648 7.69754 8.9516 8.04917C8.61671 8.40081 8.42857 8.87772 8.42857 9.375C8.42857 9.87228 8.61671 10.3492 8.9516 10.7008C9.28648 11.0525 9.74068 11.25 10.2143 11.25H13.7857C14.6382 11.25 15.4558 11.6056 16.0586 12.2385C16.6614 12.8715 17 13.7299 17 14.625C17 15.5201 16.6614 16.3785 16.0586 17.0115C15.4558 17.6444 14.6382 18 13.7857 18H7.71429C7.3198 18 7 17.6642 7 17.25C7 16.8358 7.3198 16.5 7.71429 16.5H13.7857C14.2593 16.5 14.7135 16.3025 15.0484 15.9508C15.3833 15.5992 15.5714 15.1223 15.5714 14.625C15.5714 14.1277 15.3833 13.6508 15.0484 13.2992C14.7135 12.9475 14.2593 12.75 13.7857 12.75H10.2143C9.3618 12.75 8.54424 12.3944 7.94144 11.7615C7.33865 11.1285 7 10.2701 7 9.375C7 8.47989 7.33865 7.62145 7.94144 6.98851Z" fill="white"/>
</svg>
