<svg width="14" height="17" viewBox="0 0 14 17" fill="none" xmlns="http://www.w3.org/2000/svg">
<path d="M9.91675 2.16667C11.0871 2.16667 11.6723 2.16667 12.0927 2.44756C12.2747 2.56915 12.4309 2.7254 12.5525 2.90739C12.8334 3.32776 12.8334 3.91295 12.8334 5.08334V13C12.8334 14.5714 12.8334 15.357 12.3453 15.8452C11.8571 16.3333 11.0714 16.3333 9.50008 16.3333H4.50008C2.92873 16.3333 2.14306 16.3333 1.6549 15.8452C1.16675 15.357 1.16675 14.5714 1.16675 13V5.08334C1.16675 3.91295 1.16675 3.32776 1.44763 2.90739C1.56923 2.7254 1.72548 2.56915 1.90746 2.44756C2.32784 2.16667 2.91303 2.16667 4.08341 2.16667" stroke="white"/>
<path d="M4.50008 2.16667C4.50008 1.24619 5.24627 0.5 6.16675 0.5H7.83341C8.75389 0.5 9.50008 1.24619 9.50008 2.16667C9.50008 3.08714 8.75389 3.83333 7.83341 3.83333H6.16675C5.24627 3.83333 4.50008 3.08714 4.50008 2.16667Z" stroke="white"/>
<path d="M4.50008 8L9.50008 8" stroke="white" stroke-linecap="round"/>
<path d="M4.50008 11.3333L7.83341 11.3333" stroke="white" stroke-linecap="round"/>
</svg>
