<svg width="13" height="14" viewBox="0 0 13 14" fill="none" xmlns="http://www.w3.org/2000/svg">
<path d="M6.49992 2.33333L2.70825 4.08333L6.49992 5.83333L10.2916 4.08333L6.49992 2.33333Z" stroke="#C1C6D8" stroke-width="0.731103" stroke-linejoin="round"/>
<path fill-rule="evenodd" clip-rule="evenodd" d="M4.55962 5.74299L2.55514 6.66814C2.42568 6.72789 2.34277 6.85746 2.34277 7.00004C2.34277 7.14263 2.42568 7.2722 2.55514 7.33195L6.3468 9.08195C6.444 9.12681 6.55598 9.12681 6.65318 9.08195L10.4448 7.33195C10.5743 7.2722 10.6572 7.14263 10.6572 7.00004C10.6572 6.85746 10.5743 6.72789 10.4448 6.66814L8.44036 5.74299L7.56804 6.1456L9.41934 7.00004L6.49999 8.34744L3.58064 7.00004L5.43194 6.1456L4.55962 5.74299ZM6.30426 4.93777L6.3468 4.91814C6.444 4.87328 6.55598 4.87328 6.65318 4.91814L6.69572 4.93777L6.49999 5.02811L6.30426 4.93777Z" fill="#C1C6D8"/>
<path fill-rule="evenodd" clip-rule="evenodd" d="M4.55956 8.6596L2.55514 9.58472C2.42568 9.64447 2.34277 9.77404 2.34277 9.91662C2.34277 10.0592 2.42568 10.1888 2.55514 10.2485L6.3468 11.9985C6.444 12.0434 6.55598 12.0434 6.65318 11.9985L10.4448 10.2485C10.5743 10.1888 10.6572 10.0592 10.6572 9.91662C10.6572 9.77404 10.5743 9.64447 10.4448 9.58472L8.44042 8.6596L7.56811 9.06221L9.41934 9.91662L6.49999 11.264L3.58064 9.91662L5.43188 9.06221L4.55956 8.6596ZM6.30419 7.85438L6.3468 7.83472C6.444 7.78986 6.55598 7.78986 6.65318 7.83472L6.69579 7.85438L6.49999 7.94475L6.30419 7.85438Z" fill="#C1C6D8"/>
</svg>
