<?xml version="1.0" encoding="iso-8859-1"?>
<!-- Generator: Adobe Illustrator 19.0.0, SVG Export Plug-In . SVG Version: 6.00 Build 0)  -->
<svg version="1.1" id="Layer_1" xmlns="http://www.w3.org/2000/svg" xmlns:xlink="http://www.w3.org/1999/xlink" x="0px"
	y="0px" viewBox="0 0 512 512" fill="currentColor" style="enable-background:new 0 0 512 512;" xml:space="preserve">
	<g>
		<g>
			<g>
				<path d="M449.306,240.327h-151.51V208.98h47.02c2.144,0,4.236-0.659,5.991-1.889l104.49-73.143
				c2.794-1.956,4.458-5.15,4.458-8.56s-1.664-6.605-4.458-8.56l-104.49-73.143c-1.755-1.23-3.847-1.889-5.991-1.889h-47.02V10.449
				C297.796,4.678,293.117,0,287.347,0h-62.694c-5.771,0-10.449,4.678-10.449,10.449v31.347H62.694
				c-5.771,0-10.449,4.678-10.449,10.449v146.286c0,5.771,4.678,10.449,10.449,10.449h151.51v31.347h-47.02
				c-2.144,0-4.236,0.659-5.992,1.889l-104.49,73.143c-2.793,1.955-4.456,5.15-4.456,8.56c0,3.409,1.663,6.605,4.456,8.56
				l104.49,73.143c1.757,1.23,3.848,1.889,5.992,1.889h47.02v94.041c0,5.771,4.678,10.449,10.449,10.449h62.694
				c5.77,0,10.449-4.678,10.449-10.449V407.51h151.51c5.77,0,10.449-4.678,10.449-10.449V250.775
				C459.755,245.005,455.076,240.327,449.306,240.327z M235.102,20.898h41.796v20.898h-41.796V20.898z M73.143,188.082V62.694
				h268.38l89.563,62.694l-89.563,62.694H73.143z M276.898,208.98v31.347h-41.796V208.98H276.898z M276.898,491.102h-41.796V407.51
				h41.796V491.102z M438.857,386.612h-268.38l-89.562-62.694l89.562-62.694h268.38V386.612z" />
				<rect x="109.714" y="88.816" width="57.469" height="20.898" />
				<rect x="109.714" y="141.061" width="198.531" height="20.898" />
				<rect x="188.082" y="88.816" width="20.898" height="20.898" />
				<rect x="344.816" y="339.592" width="57.469" height="20.898" />
				<rect x="203.755" y="287.347" width="198.531" height="20.898" />
				<rect x="303.02" y="339.592" width="20.898" height="20.898" />
			</g>
		</g>
	</g>
	<g>
	</g>
	<g>
	</g>
	<g>
	</g>
	<g>
	</g>
	<g>
	</g>
	<g>
	</g>
	<g>
	</g>
	<g>
	</g>
	<g>
	</g>
	<g>
	</g>
	<g>
	</g>
	<g>
	</g>
	<g>
	</g>
	<g>
	</g>
	<g>
	</g>
</svg>