<svg width="18" height="18" viewBox="0 0 18 18" fill="none" xmlns="http://www.w3.org/2000/svg">
<path d="M1 5.07018C1 3.15148 1 2.19213 1.59606 1.59606C2.19213 1 3.15148 1 5.07018 1H12.9298C14.8485 1 15.8079 1 16.4039 1.59606C17 2.19213 17 3.15148 17 5.07018V12.9298C17 14.8485 17 15.8079 16.4039 16.4039C15.8079 17 14.8485 17 12.9298 17H5.07018C3.15148 17 2.19213 17 1.59606 16.4039C1 15.8079 1 14.8485 1 12.9298V5.07018Z" stroke="#B6B2EA"/>
<path d="M1 6.33331H17" stroke="#B6B2EA" stroke-linecap="round"/>
<path d="M5.44434 6.33331L5.44434 17" stroke="#B6B2EA" stroke-linecap="round"/>
<path d="M14.3333 3.66669L6.33325 3.66669" stroke="#B6B2EA" stroke-linecap="round"/>
<path d="M4.55566 3.66669L1.00011 3.66669" stroke="#B6B2EA" stroke-linecap="round"/>
</svg>
