<svg width="24" height="24" viewBox="0 0 24 24" fill="none" xmlns="http://www.w3.org/2000/svg">
<path d="M16.2083 13.2083C16.0131 13.4036 16.0131 13.7202 16.2083 13.9154C16.4036 14.1107 16.7202 14.1107 16.9154 13.9154L16.2083 13.2083ZM22.0619 8.56189C22.0619 8.28575 21.838 8.06189 21.5619 8.06189H17.0619C16.7857 8.06189 16.5619 8.28575 16.5619 8.56189C16.5619 8.83803 16.7857 9.06189 17.0619 9.06189H21.0619V13.0619C21.0619 13.338 21.2857 13.5619 21.5619 13.5619C21.838 13.5619 22.0619 13.338 22.0619 13.0619V8.56189ZM16.9154 13.9154L21.9154 8.91544L21.2083 8.20834L16.2083 13.2083L16.9154 13.9154Z" fill="currentColor"/>
<line x1="6.07809" y1="11.7028" x2="2.70278" y2="15.9219" stroke="currentColor" stroke-linecap="round"/>
<line x1="13.3" y1="14.1" x2="10.0999" y2="11.7" stroke="currentColor" stroke-linecap="round"/>
<circle cx="7.99988" cy="10" r="1.5" transform="rotate(90 7.99988 10)" stroke="currentColor"/>
<circle cx="15" cy="15" r="1.5" transform="rotate(90 15 15)" stroke="currentColor"/>
</svg>
