<svg width="13" height="12" viewBox="0 0 13 12" fill="none" xmlns="http://www.w3.org/2000/svg">
<path fill-rule="evenodd" clip-rule="evenodd" d="M7.22195 3.27734L8.30223 2.26907C8.71062 1.88791 8.91481 1.69733 9.1602 1.67266C9.20885 1.66777 9.25785 1.66777 9.3065 1.67266C9.55189 1.69733 9.75608 1.88791 10.1645 2.26907C10.6275 2.7012 10.859 2.91727 10.8886 3.18686C10.8944 3.23992 10.8944 3.29347 10.8886 3.34653C10.859 3.61612 10.6275 3.83219 10.1645 4.26432L9.23323 5.13347C8.40501 4.70472 7.71143 4.06143 7.22195 3.27734ZM6.67865 3.78442L3.06916 7.15327C2.90257 7.30875 2.81928 7.3865 2.764 7.48406C2.70872 7.58163 2.68485 7.69303 2.6371 7.91585L2.29085 9.53171C2.26485 9.65305 2.25185 9.71371 2.28599 9.74877C2.32013 9.78383 2.38112 9.77245 2.50311 9.74967L4.31505 9.41145C4.52279 9.37267 4.62665 9.35328 4.71968 9.30629C4.8127 9.2593 4.88995 9.18721 5.04443 9.04302L8.67024 5.65893C7.8665 5.19713 7.185 4.55358 6.67865 3.78442Z" fill="#C1C6D8"/>
</svg>
