<svg width="20px" height="20px" viewBox="0 0 15 16" fill="none" xmlns="http://www.w3.org/2000/svg">
<ellipse cx="7.5" cy="8.03696" rx="5.625" ry="5.625" stroke="#858D9A" stroke-width="0.47636"/>
<path d="M7.5 12.1392C7.69451 12.1392 7.8522 11.9815 7.8522 11.787C7.8522 11.5924 7.69451 11.4348 7.5 11.4348C7.30549 11.4348 7.1478 11.5924 7.1478 11.787C7.1478 11.9815 7.30549 12.1392 7.5 12.1392Z" fill="#858D9A" stroke="#858D9A" stroke-width="0.0793933"/>
<path d="M7.5 10.5369V10.0092C7.5 9.55796 7.7255 9.13661 8.10092 8.88633L8.46855 8.64124C9.03485 8.26371 9.375 7.62813 9.375 6.94753V6.78694C9.375 5.75141 8.53553 4.91194 7.5 4.91194V4.91194C6.46447 4.91194 5.625 5.75141 5.625 6.78694V6.78694" stroke="#858D9A" stroke-width="0.47636"/>
</svg>
