<svg width="24" height="24" viewBox="0 0 24 24" fill="none" xmlns="http://www.w3.org/2000/svg">
<path d="M10.3072 7.22035C10.9493 5.61967 11.2704 4.81932 11.7919 4.7084C11.9291 4.67923 12.0708 4.67923 12.208 4.7084C12.7295 4.81932 13.0506 5.61967 13.6927 7.22035C14.0578 8.13063 14.2404 8.58577 14.582 8.89534C14.6778 8.98217 14.7818 9.0595 14.8926 9.12625C15.2874 9.36423 15.7803 9.40837 16.7661 9.49665C18.4348 9.6461 19.2692 9.72083 19.524 10.1966C19.5768 10.2951 19.6127 10.4018 19.6302 10.5122C19.7146 11.0452 19.1012 11.6033 17.8744 12.7194L17.5338 13.0293C16.9602 13.5511 16.6735 13.812 16.5076 14.1376C16.4081 14.333 16.3414 14.5433 16.3101 14.7603C16.258 15.122 16.342 15.5004 16.5099 16.2574L16.5699 16.5279C16.8711 17.8854 17.0217 18.5642 16.8337 18.8978C16.6649 19.1975 16.3538 19.3894 16.0102 19.4058C15.6277 19.4241 15.0887 18.9849 14.0107 18.1065C13.3005 17.5278 12.9454 17.2384 12.5512 17.1254C12.191 17.0221 11.8089 17.0221 11.4487 17.1254C11.0545 17.2384 10.6994 17.5278 9.98917 18.1065C8.91119 18.9849 8.37221 19.4241 7.98968 19.4058C7.64609 19.3894 7.33504 19.1975 7.16617 18.8978C6.97818 18.5642 7.12878 17.8854 7.42997 16.5279L7.48998 16.2574C7.65794 15.5004 7.74191 15.122 7.6898 14.7603C7.65854 14.5433 7.59182 14.333 7.49232 14.1376C7.32645 13.812 7.03968 13.5511 6.46613 13.0293L6.12546 12.7194C4.89867 11.6033 4.28527 11.0452 4.36975 10.5122C4.38724 10.4018 4.42312 10.2951 4.47589 10.1966C4.73069 9.72083 5.56507 9.6461 7.23384 9.49665C8.21962 9.40837 8.71251 9.36423 9.10735 9.12625C9.2181 9.0595 9.32211 8.98217 9.41793 8.89534C9.75954 8.58577 9.94211 8.13063 10.3072 7.22035Z" fill="currentColor" stroke="currentColor" stroke-width="2"/>
</svg>
