<svg width="18" height="18" viewBox="0 0 18 18" fill="none" xmlns="http://www.w3.org/2000/svg">
<path d="M1 5.07018C1 3.15148 1 2.19213 1.59606 1.59606C2.19213 1 3.15148 1 5.07018 1H9.12798C10.049 1 10.5096 1 10.9144 1.18618C11.3192 1.37237 11.6189 1.72203 12.2183 2.42134L16.0201 6.85682C16.5048 7.4223 16.7472 7.70504 16.8736 8.04676C17 8.38848 17 8.76087 17 9.50566V12.9298C17 14.8485 17 15.8079 16.4039 16.4039C15.8079 17 14.8485 17 12.9298 17H5.07018C3.15148 17 2.19213 17 1.59606 16.4039C1 15.8079 1 14.8485 1 12.9298V5.07018Z" stroke="#B6B2EA"/>
<path d="M14 11L4 11" stroke="#B6B2EA" stroke-linecap="round"/>
<path d="M8 14H4" stroke="#B6B2EA" stroke-linecap="round"/>
<path d="M11 1V6C11 7.10457 11.8954 8 13 8H17" stroke="#B6B2EA"/>
</svg>
