<svg width="24" height="24" viewBox="0 0 24 24" fill="none" xmlns="http://www.w3.org/2000/svg">
<path d="M16.8701 6L17.002 8.81416H16.668C16.6035 8.31858 16.5156 7.9646 16.4043 7.75221C16.2227 7.41003 15.9795 7.15929 15.6748 7C15.376 6.83481 14.9805 6.75221 14.4883 6.75221H12.8096V15.9204C12.8096 16.6578 12.8887 17.118 13.0469 17.3009C13.2695 17.5487 13.6123 17.6726 14.0752 17.6726H14.4883V18H9.43457V17.6726H9.85645C10.3604 17.6726 10.7178 17.5192 10.9287 17.2124C11.0576 17.0236 11.1221 16.5929 11.1221 15.9204V6.75221H9.68945C9.13281 6.75221 8.7373 6.79351 8.50293 6.87611C8.19824 6.9882 7.9375 7.20354 7.7207 7.52212C7.50391 7.84071 7.375 8.27139 7.33398 8.81416H7L7.14062 6H16.8701Z" fill="currentColor"/>
</svg>
