<svg width="24" height="24" viewBox="0 0 24 24" fill="none" xmlns="http://www.w3.org/2000/svg">
<path d="M3.50035 22.0004C3.00035 22.0004 2.50035 21.9004 2.00035 21.6004C0.600353 20.8004 0.100353 18.9004 0.900353 17.5004L9.40035 3.30039C9.70035 2.90039 10.0004 2.50039 10.4004 2.30039C11.1004 1.90039 11.9004 1.80039 12.7004 2.00039C13.5004 2.20039 14.1004 2.70039 14.6004 3.40039L23.0004 17.5004C23.3004 18.0004 23.4004 18.5004 23.4004 19.0004C23.4004 19.8004 23.1004 20.6004 22.5004 21.1004C22.0004 21.7004 21.3004 22.0004 20.5004 22.0004H3.50035ZM11.1004 4.40039L2.70035 18.5004C2.40035 19.0004 2.60035 19.6004 3.10035 19.9004C3.20035 20.0004 3.40035 20.0004 3.50035 20.0004H20.4004C20.7004 20.0004 20.9004 19.9004 21.1004 19.7004C21.3004 19.5004 21.4004 19.3004 21.4004 19.0004C21.4004 18.8004 21.4004 18.7004 21.3004 18.5004L12.9004 4.40039C12.6004 3.90039 12.0004 3.80039 11.5004 4.00039C11.3004 4.10039 11.2004 4.20039 11.1004 4.40039Z" fill="#F4D700"/>
<path d="M12.0004 14.0004C11.4004 14.0004 11.0004 13.6004 11.0004 13.0004V9.00039C11.0004 8.40039 11.4004 8.00039 12.0004 8.00039C12.6004 8.00039 13.0004 8.40039 13.0004 9.00039V13.0004C13.0004 13.6004 12.6004 14.0004 12.0004 14.0004Z" fill="#F4D700"/>
<path d="M12.0004 18.0004C11.7004 18.0004 11.5004 17.9004 11.3004 17.7004C11.1004 17.5004 11.0004 17.3004 11.0004 17.0004C11.0004 16.9004 11.0004 16.7004 11.1004 16.6004C11.2004 16.5004 11.2004 16.4004 11.3004 16.3004C11.4004 16.2004 11.5004 16.1004 11.6004 16.1004C11.8004 16.0004 12.0004 16.0004 12.2004 16.0004C12.3004 16.0004 12.3004 16.0004 12.4004 16.1004C12.5004 16.1004 12.5004 16.1004 12.6004 16.2004C12.6004 16.2004 12.7004 16.3004 12.8004 16.3004C12.9004 16.4004 13.0004 16.5004 13.0004 16.6004C13.0004 16.7004 13.1004 16.9004 13.1004 17.0004C13.1004 17.3004 13.0004 17.5004 12.8004 17.7004C12.5004 17.9004 12.3004 18.0004 12.0004 18.0004Z" fill="#F4D700"/>
</svg>
